<?xml version="1.0" encoding="UTF-8"?>
<!-- Generated by Pixelmator Pro 3.1.1 -->
<svg width="1280" height="640" viewBox="0 0 1280 640" xmlns="http://www.w3.org/2000/svg" xmlns:xlink="http://www.w3.org/1999/xlink">
    <path id="Path" fill="#404040" stroke="none" d="M 692.461182 322.407379 C 692.461182 300.975494 679.052734 291.385834 662.555176 291.385834 C 646.068298 291.385834 632.63855 300.975494 632.63855 322.407379 L 632.63855 339.033691 C 632.63855 360.476349 646.068298 370.033783 662.555176 370.033783 C 679.042053 370.033783 692.461182 360.476349 692.461182 339.033691 Z M 716.038391 322.407379 L 716.038391 339.033691 C 716.038391 374.764313 690.326599 389.706543 662.555176 389.706543 C 634.805298 389.706543 609.104187 374.764313 609.104187 339.02298 L 609.104187 322.407379 C 609.104187 286.687531 634.805298 271.745239 662.555176 271.745239 C 690.326599 271.745239 716.038391 286.676819 716.038391 322.407379 Z M 944.120361 292.72287 L 910.5672 292.72287 L 910.5672 386.034241 C 910.520325 387.868347 909.001038 389.320374 907.166748 389.284424 L 890.540405 389.284424 C 888.718079 389.30838 887.218323 387.856445 887.182922 386.034241 L 887.182922 292.72287 L 853.587097 292.72287 C 851.742004 292.72287 850.208191 291.6073 850.208191 289.82666 L 850.208191 276.986877 C 850.208191 275.184784 851.742004 273.897583 853.587097 273.897583 L 944.120361 273.897583 C 945.96521 273.897583 947.488342 275.184784 947.488342 276.986877 L 947.488342 289.815979 C 947.488342 291.6073 945.96521 292.72287 944.120361 292.72287 Z M 835.3302 344.586365 L 835.3302 276.986877 C 835.3302 275.184784 833.807068 273.897583 831.940552 273.897583 L 815.282166 273.897583 C 813.437012 273.897583 811.935303 275.184784 811.935303 276.986877 L 811.935303 344.586365 C 811.935303 363.111298 803.075195 371.885712 784.904236 371.885712 C 766.7547 371.885712 757.883545 363.111298 757.883545 344.586365 L 757.883545 276.986877 C 757.883545 275.184784 756.381836 273.897583 754.515503 273.897583 L 737.889099 273.897583 C 736.044128 273.897583 734.510315 275.184784 734.510315 276.986877 L 734.510315 344.586365 C 734.510315 379.201324 757.830078 390.571594 784.904236 390.571594 C 811.999817 390.571594 835.31958 379.201324 835.31958 344.586365 Z M 986.190247 338.976318 L 1040.038086 338.976318 C 1041.854248 339.000519 1043.353882 337.563049 1043.40625 335.747589 L 1043.40625 324.012573 C 1043.353882 322.197113 1041.854248 320.759644 1040.038086 320.783844 L 986.190247 320.783844 L 986.190247 305.873779 C 986.190247 292.293823 986.72644 291.929108 999.448303 291.929108 L 1042.05481 291.929108 C 1043.878418 291.941376 1045.376099 290.491302 1045.422729 288.668213 L 1045.422729 278.274017 C 1045.422729 275.989288 1044.575562 275.16333 1042.05481 274.852234 C 1036.65918 274.058502 1025.707275 272.59964 1005.691284 272.59964 C 977.769836 272.59964 962.945374 272.406555 962.945374 305.873779 L 962.945374 357.265259 C 962.945374 390.732513 977.769836 390.560852 1005.691284 390.560852 C 1025.707275 390.560852 1036.65918 389.102051 1042.05481 388.286804 C 1044.575562 387.965057 1045.422729 387.149811 1045.422729 384.854309 L 1045.422729 374.49234 C 1045.376099 372.672668 1043.875 371.22876 1042.05481 371.252838 L 999.448303 371.252838 C 986.72644 371.252838 986.190247 370.877411 986.190247 357.265259 Z M 1143.743652 309.306335 C 1143.743652 297.120819 1133.950317 291.929108 1117.120117 291.929108 C 1113.5802 291.929108 1098.262451 292.250916 1095.259033 292.572723 L 1095.259033 327.788391 C 1097.930054 327.959991 1114.234497 328.292511 1117.120117 328.292511 C 1134.432983 328.292511 1143.73291 325.074554 1143.73291 310.786591 Z M 1170.98938 387.342896 C 1170.98938 388.458496 1170.324341 389.273712 1168.983521 389.273712 L 1148.431396 389.273712 C 1146.586304 389.273712 1145.910645 387.632538 1145.073608 386.034241 L 1120.842041 346.645905 L 1117.120117 346.645905 C 1112.722168 346.645905 1099.131226 346.17395 1095.259033 345.980804 L 1095.259033 386.034241 C 1095.27356 386.894989 1094.940308 387.72522 1094.334473 388.336975 C 1093.728882 388.94873 1092.901978 389.290344 1092.041138 389.284424 L 1075.22168 389.284424 C 1073.401611 389.302521 1071.905151 387.853943 1071.864136 386.034241 L 1071.864136 279.561279 C 1071.864136 276.311096 1073.859253 275.16333 1077.249023 274.691315 C 1086.012817 273.404175 1104.816528 272.588928 1117.120117 272.588928 C 1143.025024 272.588928 1166.945435 281.534973 1166.945435 309.295563 L 1166.945435 310.775879 C 1166.945435 327.959991 1158.042236 337.378052 1144.247925 342.548309 L 1170.64624 386.023529 C 1171 386.506195 1171 386.967468 1171 387.332184 Z M 568.473572 309.306335 C 568.473572 297.120819 558.680054 291.929108 541.860657 291.929108 C 538.31012 291.929108 523.003052 292.250916 519.999634 292.572723 L 519.999634 327.788391 C 522.670532 327.959991 538.975037 328.292511 541.860657 328.292511 C 559.173401 328.292511 568.462769 325.074554 568.462769 310.786591 Z M 595.730042 387.342896 C 595.730042 388.458496 595.054199 389.273712 593.723999 389.273712 L 573.171753 389.273712 C 571.337585 389.273712 570.65094 387.632538 569.814331 386.034241 L 545.582764 346.645905 L 541.860657 346.645905 C 537.462646 346.645905 523.872009 346.17395 519.999634 345.980804 L 519.999634 386.034241 C 520.017029 386.895844 519.684753 387.727814 519.078369 388.340271 C 518.471924 388.952637 517.643311 389.293274 516.781616 389.284424 L 499.962219 389.284424 C 498.146301 389.2966 496.656403 387.849731 496.615448 386.034241 L 496.615448 279.561279 C 496.615448 276.311096 498.599945 275.16333 501.989502 274.691315 C 510.753296 273.404175 529.557068 272.588928 541.860657 272.588928 C 567.765442 272.588928 591.686096 281.534973 591.686096 309.295563 L 591.686096 310.775879 C 591.686096 327.959991 582.782898 337.378052 568.98822 342.548309 L 595.375977 386.023529 C 595.730042 386.506195 595.730042 386.967468 595.730042 387.332184 Z"/>
    <path id="path1" fill="#ff8000" stroke="none" d="M 408.029968 351.183258 C 399.888397 351.183258 393.280792 357.672882 393.280792 365.696472 C 393.280792 373.698578 399.888397 380.198914 408.029968 380.198914 C 416.171478 380.198914 422.779144 373.698578 422.779144 365.696472 C 422.779144 357.672882 416.18222 351.183258 408.029968 351.183258 Z M 389.322632 388.844604 C 382.414642 388.844604 376.815338 394.358124 376.815338 401.148132 C 376.815338 407.948822 382.414642 413.462341 389.322632 413.462341 C 396.219879 413.462341 401.819214 407.948822 401.819214 401.148132 C 401.819214 394.358124 396.219879 388.844604 389.322632 388.844604 Z M 361.540558 418.353699 C 358.693787 418.328003 355.953552 419.434998 353.923462 421.430908 C 351.893372 423.426758 350.73999 426.147766 350.717316 428.994568 C 350.737183 431.84137 351.887848 434.563507 353.915894 436.561371 C 355.94397 438.559265 358.683044 439.669006 361.529816 439.646149 C 364.378418 439.671875 367.12027 438.563416 369.150665 436.565186 C 371.181061 434.567017 372.333221 431.843201 372.353027 428.994568 C 372.330353 426.147766 371.176971 423.426758 369.146881 421.430908 C 367.116821 419.434998 364.376587 418.328003 361.529816 418.353699 Z M 330.347382 438.208801 C 328.0336 438.185913 325.805817 439.084656 324.155609 440.706665 C 322.505432 442.328705 321.568481 444.540649 321.551483 446.854492 C 321.551483 451.627869 325.48819 455.500183 330.347382 455.500183 C 335.206573 455.500183 339.121796 451.627869 339.121796 446.854492 C 339.104767 444.544403 338.170776 442.335724 336.525238 440.714325 C 334.8797 439.092926 332.65744 438.19165 330.347382 438.208801 Z M 299.669067 448.720947 C 295.548187 448.691162 292.180237 452.001556 292.138947 456.122345 C 292.138947 460.230652 295.507141 463.555908 299.669067 463.555908 C 303.831024 463.555908 307.20993 460.230652 307.20993 456.133057 C 307.19577 454.148285 306.392975 452.25058 304.978455 450.858215 C 303.563934 449.46582 301.653839 448.693054 299.669067 448.710205 Z M 270.943024 452.893616 C 269.236084 452.879333 267.593384 453.543762 266.376312 454.740662 C 265.159271 455.937622 264.46756 457.569031 264.4534 459.27597 C 264.464752 460.984802 265.155182 462.618958 266.372559 463.818207 C 267.589905 465.017456 269.234253 465.68335 270.943024 465.669067 C 272.649994 465.680481 274.291565 465.013367 275.506592 463.814392 C 276.721619 462.615448 277.410614 460.98291 277.421936 459.27597 C 277.392456 455.725647 274.493439 452.869812 270.943024 452.893616 Z M 242.163376 448.720947 C 240.178619 448.703796 238.268509 449.476563 236.853989 450.868927 C 235.439484 452.261322 234.636688 454.158997 234.622513 456.143799 C 234.622513 460.241364 238.001419 463.56665 242.163376 463.56665 C 246.325317 463.56665 249.704224 460.241364 249.704224 456.143799 C 249.690063 454.158997 248.887253 452.261322 247.472748 450.868927 C 246.058243 449.476563 244.148132 448.703796 242.163376 448.720947 Z M 211.485077 438.208801 C 206.658066 438.208801 202.732117 442.059662 202.732117 446.811584 C 202.732117 451.563477 206.658066 455.435822 211.485077 455.435822 C 216.3228 455.435822 220.238052 451.574219 220.238052 446.811584 C 220.238052 442.04895 216.3228 438.198059 211.485077 438.198059 Z M 180.270447 418.385864 C 174.354523 418.344238 169.52179 423.100159 169.468689 429.016022 C 169.5159 434.936066 174.350372 439.698486 180.270447 439.656891 C 183.115372 439.679749 185.852829 438.571472 187.8806 436.575897 C 189.90834 434.580322 191.060272 431.860962 191.082947 429.016022 C 191.029846 423.095947 186.190552 418.338287 180.270447 418.385864 Z M 152.520538 388.855347 C 145.612564 388.855347 140.002518 394.379578 140.002518 401.180298 C 140.002518 407.981018 145.612564 413.494507 152.520538 413.494507 C 159.428513 413.494507 165.038574 407.981018 165.038574 401.180298 C 165.038574 394.379578 159.428513 388.855347 152.520538 388.855347 Z M 133.80249 351.151093 C 125.671669 351.151093 119.074768 357.640747 119.074768 365.653564 C 119.074768 373.666382 125.671669 380.156006 133.80249 380.156006 C 141.954773 380.156006 148.540939 373.666382 148.540939 365.653564 C 148.540939 357.640747 141.944046 351.151093 133.80249 351.151093 Z M 127.044685 304.103882 C 117.626663 304.103882 110 311.612549 110 320.880402 C 110 330.148254 117.626663 337.656921 127.055412 337.656921 C 136.462708 337.656921 144.089371 330.148254 144.089371 320.880402 C 144.089371 311.612549 136.462708 304.103882 127.044685 304.103882 Z M 133.80249 261.604797 C 125.671669 261.604797 119.074768 268.094452 119.074768 276.096527 C 119.074768 284.098633 125.671669 290.588287 133.80249 290.588287 C 141.933319 290.588287 148.519485 284.098633 148.519485 276.107269 C 148.519485 268.094452 141.933319 261.604797 133.80249 261.604797 Z M 152.499084 228.244843 C 145.59111 228.244843 139.981064 233.769073 139.981064 240.580505 C 139.981064 247.391968 145.59111 252.894745 152.499084 252.894745 C 159.417786 252.894745 165.01712 247.381226 165.01712 240.569794 C 165.01712 233.758362 159.417786 228.244843 152.499084 228.244843 Z M 180.291901 202.082489 C 174.375977 202.040833 169.543243 206.796783 169.490143 212.712616 C 169.537354 218.63266 174.371826 223.395111 180.291901 223.353485 C 183.136826 223.376312 185.874283 222.268066 187.902039 220.272461 C 189.929794 218.276917 191.081726 215.557526 191.104385 212.712616 C 191.0513 206.792572 186.212006 202.034882 180.291901 202.082489 Z M 211.495804 186.292816 C 206.701324 186.257111 202.784149 190.111877 202.742828 194.906311 C 202.784149 199.700775 206.701324 203.555542 211.495804 203.519867 C 216.286118 203.549622 220.196747 199.696564 220.238052 194.906311 C 220.221039 192.604797 219.290421 190.404297 217.650909 188.78894 C 216.011414 187.173584 213.797348 186.275696 211.495804 186.292816 Z M 242.141922 178.172729 C 237.979965 178.172729 234.601059 181.497986 234.601059 185.595581 C 234.601059 189.693146 237.979965 193.018433 242.141922 193.018433 C 246.325317 193.018433 249.693497 189.693146 249.693497 185.595581 C 249.693497 181.497986 246.31459 178.172729 242.141922 178.172729 Z M 270.878693 176.048828 C 267.295959 176.048828 264.39978 178.90213 264.39978 182.420471 C 264.39978 185.938843 267.295959 188.802856 270.878693 188.802856 C 274.450653 188.802856 277.357605 185.938843 277.357605 182.420471 C 277.357605 178.90213 274.461395 176.048828 270.878693 176.048828 Z M 299.701263 178.194183 C 297.718323 178.177032 295.809845 178.948334 294.39566 180.338409 C 292.981445 181.728455 292.177399 183.623383 292.1604 185.606323 C 292.1604 189.703888 295.539307 193.018433 299.701263 193.018433 C 303.852478 193.018433 307.220642 189.693146 307.220642 185.617035 C 307.191132 181.492035 303.826263 178.17038 299.701263 178.194183 Z M 330.347382 186.303528 C 325.520355 186.303528 321.594391 190.165131 321.594391 194.906311 C 321.594391 199.658264 325.509644 203.509125 330.347382 203.509125 C 335.174377 203.509125 339.0896 199.658264 339.0896 194.906311 C 339.048309 190.117828 335.135925 186.267853 330.347382 186.303528 Z M 361.508362 202.114655 C 358.66629 202.091797 355.931549 203.198944 353.905823 205.192505 C 351.880066 207.186066 350.729279 209.90271 350.706604 212.744781 C 350.706604 218.612274 355.5336 223.364197 361.508362 223.364197 C 367.418365 223.405853 372.246307 218.654694 372.299377 212.744781 C 372.299377 206.877319 367.472382 202.125366 361.508362 202.125366 Z M 389.290466 228.255585 C 382.426636 228.207977 376.820679 233.727539 376.761688 240.591248 C 376.761688 247.402679 382.382477 252.92691 389.301178 252.92691 C 396.164978 252.974518 401.770935 247.454956 401.829926 240.591248 C 401.770935 233.727539 396.164978 228.207977 389.301178 228.255585 Z M 408.019226 261.56189 C 399.899109 261.56189 393.302216 268.051514 393.302216 276.042877 C 393.302216 284.055725 399.899109 290.54538 408.019226 290.54538 C 416.160767 290.54538 422.746948 284.055725 422.746948 276.053619 C 422.746948 268.051514 416.160767 261.56189 408.019226 261.56189 Z M 340.462616 343.031006 C 336.841156 343.007202 333.884521 345.920654 333.85498 349.542084 C 333.85498 353.14624 336.815552 356.053192 340.462616 356.053192 C 344.120422 356.053192 347.080963 353.14624 347.080963 349.542084 C 347.066803 347.800995 346.361572 346.136841 345.120361 344.915771 C 343.87915 343.694672 342.203705 343.016693 340.462616 343.031006 Z M 323.943542 367.166016 C 322.202454 367.151733 320.527008 367.829712 319.285797 369.050781 C 318.044617 370.271851 317.339355 371.936005 317.325165 373.677094 C 317.325165 377.270538 320.285736 380.188202 323.943542 380.188202 C 327.601318 380.188202 330.56192 377.270538 330.56192 373.677094 C 330.547729 371.936005 329.842468 370.271851 328.601257 369.050781 C 327.360077 367.829712 325.684631 367.151733 323.943542 367.166016 Z M 299.454559 382.666046 C 295.485657 382.666046 292.26767 385.830414 292.26767 389.734924 C 292.26767 393.639465 295.485657 396.803833 299.454559 396.803833 C 303.423401 396.803833 306.641418 393.639465 306.641418 389.724213 C 306.641418 385.830414 303.423401 382.666046 299.454559 382.666046 Z M 270.492523 386.881653 C 267.944458 386.858795 265.491852 387.849854 263.675018 389.636536 C 261.858185 391.423187 260.826172 393.858856 260.806335 396.406921 C 260.806335 401.663025 265.139923 405.921509 270.481812 405.921509 C 275.823669 405.921509 280.157257 401.652283 280.157257 396.406921 C 280.140259 393.859833 279.110626 391.424133 277.295471 389.637177 C 275.480347 387.85022 273.028839 386.858795 270.481812 386.881653 Z M 241.605576 381.196503 C 235.534286 381.196503 230.62146 386.023499 230.62146 391.99826 C 230.62146 397.96228 235.534286 402.800049 241.605576 402.800049 C 247.666153 402.800049 252.578964 397.973022 252.578964 391.99826 C 252.578964 386.023499 247.666153 381.196503 241.605576 381.196503 Z M 215.37886 362.993317 C 208.653229 362.993317 203.204086 368.356659 203.204086 374.985748 C 203.204086 381.604126 208.653229 386.967468 215.37886 386.967468 C 222.104492 386.967468 227.553635 381.604126 227.553635 374.985748 C 227.553635 368.367401 222.104492 362.993317 215.37886 362.993317 Z M 198.108917 338.643768 C 195.416763 338.618073 192.824982 339.664398 190.905228 341.551941 C 188.985489 343.439484 187.895477 346.013214 187.875671 348.705414 C 187.875671 354.261841 192.455948 358.756317 198.09819 358.756317 C 203.740417 358.756317 208.320709 354.251099 208.320709 348.705414 C 208.273499 343.105255 203.698364 338.602142 198.09819 338.643768 Z M 194.05423 311.869995 C 191.969894 311.852875 189.964294 312.665192 188.479385 314.127991 C 186.994461 315.590759 186.152115 317.583954 186.137939 319.668304 C 186.137939 323.958954 189.67775 327.455872 194.05423 327.455872 C 198.386612 327.485596 201.924377 324.000641 201.959793 319.668304 C 201.945618 317.585815 201.104736 315.594269 199.622147 314.131805 C 198.139542 312.669312 196.136703 311.855713 194.05423 311.869995 Z M 201.015839 285.707642 C 199.26622 285.693359 197.582581 286.374725 196.335358 287.601837 C 195.08812 288.828949 194.379471 290.501312 194.365295 292.250916 C 194.365295 295.855072 197.347321 298.783447 201.015839 298.783447 C 202.764465 298.797729 204.446991 298.116028 205.69252 296.888611 C 206.938049 295.661194 207.644318 293.988831 207.655655 292.240204 C 207.641495 290.491516 206.93251 288.820282 205.684952 287.594849 C 204.437408 286.369446 202.753738 285.690491 201.005112 285.707642 Z M 217.534912 261.819336 C 213.913452 261.795532 210.956802 264.708984 210.927292 268.330444 C 210.927292 271.923859 213.887863 274.83078 217.545654 274.83078 C 221.192719 274.83078 224.15329 271.923859 224.15329 268.330444 C 224.123764 264.708984 221.167114 261.795532 217.545654 261.819336 Z M 241.991745 245.085724 C 238.0336 245.085724 234.815598 248.260803 234.815598 252.165344 C 234.815598 256.069824 238.0336 259.234222 242.002472 259.234222 C 245.971329 259.234222 249.189346 256.069824 249.189346 252.154602 C 249.189346 248.239349 245.971329 245.085724 242.002472 245.085724 Z M 270.953766 235.957306 C 268.42749 235.937317 265.996735 236.921753 264.196289 238.694031 C 262.395844 240.466309 261.37323 242.881226 261.353394 245.407501 C 261.353394 250.631409 265.644073 254.868439 270.953766 254.868439 C 273.483765 254.891296 275.918884 253.906647 277.721954 252.131775 C 279.525024 250.356873 280.547882 247.937531 280.56488 245.407501 C 280.56488 240.183624 276.263458 235.957306 270.953766 235.957306 Z M 299.915802 239.089508 C 293.876678 239.089508 288.974579 243.916504 288.974579 249.8591 C 288.974579 255.801666 293.876678 260.628662 299.915802 260.628662 C 305.965637 260.628662 310.856995 255.801666 310.856995 249.8591 C 310.856995 243.916504 305.965637 239.089508 299.915802 239.089508 Z M 326.013794 254.87915 C 319.277435 254.87915 313.817566 260.263977 313.817566 266.893036 C 313.817566 273.522125 319.277435 278.906921 326.013794 278.906921 C 332.750153 278.906921 338.220734 273.522125 338.220734 266.893036 C 338.220734 260.263977 332.750153 254.87915 326.013794 254.87915 Z M 343.315918 283.090332 C 340.628479 283.067474 338.042175 284.113922 336.12677 285.999176 C 334.211365 287.884399 333.123962 290.453735 333.104126 293.141235 C 333.104126 298.68692 337.673706 303.181396 343.315918 303.181396 C 348.947418 303.181396 353.516998 298.676178 353.516998 293.141235 C 353.497131 290.455627 352.411224 287.887909 350.498138 286.002991 C 348.585052 284.118042 346.001526 283.070343 343.315918 283.090332 Z M 316.735229 327.219879 C 313.356323 327.219879 310.621002 329.912262 310.621002 333.226807 C 310.621002 336.541351 313.356323 339.233765 316.735229 339.233765 C 320.103394 339.233765 322.838684 336.552094 322.838684 333.226807 C 322.838684 329.90155 320.103394 327.219879 316.724487 327.219879 Z M 304.882233 345.798462 C 302.492493 345.778473 300.192719 346.708649 298.488831 348.384369 C 296.784943 350.060089 295.816589 352.344055 295.796753 354.733795 C 295.796753 359.66806 299.872894 363.669098 304.882233 363.669098 C 309.891602 363.669098 313.957001 359.66806 313.957001 354.733795 C 313.91571 349.761627 309.854462 345.762787 304.882233 345.798462 Z M 281.530273 357.951813 C 276.325256 357.916107 272.073639 362.100525 272.026428 367.30545 C 272.026428 372.475708 276.284912 376.66983 281.530273 376.66983 C 286.775604 376.66983 291.04483 372.48645 291.04483 367.30545 C 290.99762 362.096313 286.739471 357.910156 281.530273 357.951813 Z M 254.209427 357.265289 C 251.990387 357.248169 249.855438 358.113281 248.274277 359.670288 C 246.693115 361.227295 245.795258 363.348724 245.778259 365.567719 C 245.81955 370.184448 249.592667 373.895172 254.209427 373.859467 C 258.826202 373.895172 262.599304 370.184448 262.640594 365.567719 C 262.623596 363.348724 261.725739 361.227295 260.144592 359.670288 C 258.563416 358.113281 256.428467 357.248169 254.209427 357.265289 Z M 233.903824 343.717499 C 232.276535 343.703217 230.71022 344.335999 229.549484 345.476593 C 228.388763 346.617218 227.728699 348.172241 227.714539 349.79953 C 227.714539 353.167694 230.482025 355.892273 233.903824 355.892273 C 235.532959 355.906555 237.100906 355.272308 238.261948 354.129395 C 239.422989 352.98645 240.081787 351.42868 240.093124 349.79953 C 240.078949 348.172241 239.4189 346.617218 238.258179 345.476593 C 237.097443 344.335999 235.531128 343.703217 233.903824 343.717499 Z M 225.837372 326.157928 C 224.656723 326.149353 223.521042 326.610168 222.680176 327.438965 C 221.83931 328.267792 221.362122 329.396698 221.353607 330.577332 C 221.353607 333.012268 223.370239 334.996704 225.837372 334.996704 C 227.021713 335.011017 228.162918 334.552734 229.008438 333.723328 C 229.853973 332.89389 230.334106 331.761719 230.342575 330.577332 C 230.334106 329.392944 229.853973 328.260742 229.008438 327.431335 C 228.162918 326.601898 227.021713 326.143646 225.837372 326.157928 Z M 225.376114 303.277924 C 223.767883 303.260773 222.219025 303.884705 221.071747 305.011871 C 219.924469 306.139008 219.273224 307.676575 219.261917 309.284882 C 219.261917 312.599396 221.997223 315.291809 225.376114 315.291809 C 228.744293 315.291809 231.468872 312.599396 231.468872 309.284882 C 231.468872 305.959595 228.744293 303.277924 225.376114 303.277924 Z M 237.261276 278.78891 C 232.305069 278.753235 228.255142 282.735962 228.207962 287.692078 C 228.207962 292.626343 232.26265 296.616669 237.261276 296.616669 C 242.221634 296.652344 246.273285 292.663116 246.31459 287.70282 C 246.273285 282.742493 242.221634 278.753235 237.261276 278.78891 Z M 260.473816 265.766754 C 255.217728 265.766754 250.948517 269.960876 250.948517 275.141846 C 250.948517 280.322845 255.207001 284.506256 260.473816 284.506256 C 265.729858 284.506256 269.988373 280.322845 269.988373 275.141846 C 269.988373 269.960876 265.729858 265.766754 260.473816 265.766754 Z M 287.869751 268.759491 C 285.647003 268.736633 283.506531 269.599213 281.920715 271.15683 C 280.3349 272.714508 279.434082 274.839142 279.417114 277.061951 C 279.417114 281.652954 283.203613 285.375122 287.869751 285.375122 C 290.091614 285.392242 292.229309 284.526001 293.812469 282.966949 C 295.39566 281.407959 296.294617 279.283813 296.311615 277.061951 C 296.294647 274.841003 295.395294 272.718018 293.811829 271.160675 C 292.228333 269.603333 290.090607 268.739502 287.869751 268.759491 Z M 308.057343 286.437042 C 304.672821 286.413239 301.908295 289.134613 301.878784 292.519073 C 301.878784 295.887268 304.64624 298.611816 308.057343 298.611816 C 311.468414 298.611816 314.246643 295.887268 314.246643 292.519073 C 314.232483 290.891785 313.572418 289.336761 312.411682 288.196167 C 311.250946 287.055542 309.684631 286.422791 308.057343 286.437042 Z M 316.563599 307.482788 C 315.378235 307.471375 314.237091 307.932037 313.391876 308.763153 C 312.546661 309.594269 312.066864 310.727539 312.05838 311.912903 C 312.05838 314.34787 314.075012 316.332306 316.563599 316.332306 C 319.030731 316.332306 321.058075 314.34787 321.058075 311.912903 C 321.049591 310.727539 320.569794 309.594269 319.724579 308.763153 C 318.879364 307.932037 317.73819 307.471375 316.552856 307.482788 Z M 347.295502 314.433685 C 342.908295 314.433685 339.357788 317.941284 339.357788 322.26413 C 339.357788 326.576263 342.908295 330.073181 347.295502 330.073181 C 351.693451 330.073181 355.233246 326.576263 355.233246 322.253418 C 355.197845 317.90332 351.645691 314.403931 347.295502 314.433685 Z M 380.076233 323.905334 C 377.874268 323.888214 375.755707 324.746521 374.186584 326.291473 C 372.617493 327.836426 371.72644 329.941467 371.709442 332.143433 C 371.709442 336.691528 375.442322 340.3815 380.076233 340.3815 C 384.68869 340.3815 388.443054 336.691528 388.443054 332.143433 C 388.426056 329.941467 387.534973 327.836426 385.965881 326.291473 C 384.39679 324.746521 382.278198 323.888214 380.076233 323.905334 Z M 371.773773 352.996063 C 369.688477 352.978943 367.681732 353.790924 366.195129 355.253387 C 364.708496 356.715881 363.86377 358.709045 363.846802 360.794373 C 363.846802 365.106506 367.386597 368.592682 371.773773 368.592682 C 376.161011 368.592682 379.700806 365.106506 379.700806 360.794373 C 379.683807 358.707153 378.837616 356.712372 377.348663 355.249603 C 375.859711 353.786804 373.85025 352.976074 371.763062 352.996063 Z M 357.507294 377.409973 C 355.746307 377.395691 354.051758 378.081573 352.796478 379.316742 C 351.541199 380.55191 350.828033 382.235138 350.813873 383.996155 C 350.813873 387.632507 353.80661 390.582336 357.496582 390.582336 C 359.257599 390.596619 360.952148 389.910736 362.207397 388.675598 C 363.462677 387.44043 364.175842 385.757172 364.190033 383.996155 C 364.175842 382.235138 363.462677 380.55191 362.207397 379.316742 C 360.952148 378.081573 359.257599 377.395691 357.496582 377.409973 Z M 340.376801 395.548767 C 337.215668 395.530945 334.635345 398.072876 334.605865 401.233948 C 334.605865 404.376831 337.180267 406.92981 340.376801 406.92981 C 341.898834 406.944092 343.364227 406.353149 344.450531 405.286926 C 345.536804 404.220764 346.15506 402.766693 346.16922 401.244659 C 346.15506 399.722626 345.536804 398.268555 344.450531 397.202362 C 343.364227 396.136169 341.898834 395.545227 340.376801 395.559509 Z M 322.291626 408.785522 C 320.986816 408.774078 319.731049 409.282227 318.801361 410.197845 C 317.871643 411.113464 317.344421 412.361328 317.335907 413.666138 C 317.335907 416.347839 319.556335 418.536072 322.291626 418.536072 C 323.594604 418.547485 324.848755 418.040833 325.778137 417.127502 C 326.70755 416.214233 327.236023 414.969116 327.247375 413.666138 C 327.238861 412.361328 326.711609 411.113464 325.781921 410.197845 C 324.852203 409.282227 323.596466 408.774078 322.291626 408.785522 Z M 301.825134 416.261993 C 300.305939 416.25058 298.844482 416.84314 297.762177 417.909302 C 296.679901 418.975494 296.065521 420.427979 296.054169 421.947144 C 296.054169 425.079346 298.628571 427.621552 301.825134 427.621552 C 303.343323 427.632996 304.803711 427.04007 305.884277 425.973602 C 306.964844 424.907104 307.576843 423.45462 307.585358 421.936401 C 307.585358 418.80423 305.010956 416.261993 301.825134 416.261993 Z M 277.765198 420.123596 C 276.012726 420.112183 274.327515 420.797424 273.080292 422.028564 C 271.833069 423.259705 271.126007 424.935852 271.114685 426.688324 C 271.114685 430.303223 274.09668 433.24231 277.765198 433.24231 C 279.519531 433.25946 281.208649 432.578247 282.460205 431.348816 C 283.711761 430.119385 284.423065 428.442688 284.437195 426.688324 C 284.425873 424.932129 283.715881 423.252686 282.463989 422.020935 C 281.212128 420.789185 279.521362 420.106445 277.765198 420.123596 Z M 250.251282 417.441956 C 247.96965 417.424805 245.774689 418.314789 244.149277 419.916077 C 242.523849 421.517334 241.601135 423.69873 241.584137 425.980347 C 241.584137 430.689392 245.467178 434.508057 250.251282 434.508057 C 255.035385 434.508057 258.918427 430.689392 258.918427 425.980347 C 258.901428 423.699707 257.978363 421.519409 256.352631 419.91983 C 254.726913 418.320251 252.531906 417.432678 250.251282 417.452637 Z M 221.321442 407.219421 C 215.715332 407.177795 211.135391 411.68573 211.088181 417.291748 C 211.088181 422.858917 215.668472 427.374847 221.321442 427.374847 C 226.974396 427.374847 231.554688 422.858917 231.554688 417.291748 C 231.534851 414.597656 230.445541 412.021729 228.526428 410.130768 C 226.6073 408.239807 224.015564 407.18869 221.321442 407.208679 Z M 195.684677 388.297577 C 189.055603 388.297577 183.670807 393.596558 183.670807 400.129089 C 183.670807 406.672363 189.055603 411.960632 195.684677 411.960632 C 202.33522 411.960632 207.70929 406.661621 207.70929 400.129089 C 207.70929 393.585815 202.33522 388.297577 195.695404 388.297577 Z M 174.424408 359.743164 C 167.237534 359.743164 161.412964 365.481934 161.412964 372.550812 C 161.412964 379.630402 167.237534 385.369202 174.424408 385.369202 C 181.611282 385.369202 187.446594 379.630402 187.446594 372.550812 C 187.446594 365.471191 181.622009 359.743164 174.424408 359.743164 Z M 162.346176 330.030243 C 159.649185 330.007416 157.053604 331.056915 155.130447 332.947876 C 153.207306 334.838837 152.114136 337.416351 152.091476 340.113342 C 152.091476 345.691193 156.682495 350.196411 162.346176 350.196411 C 167.959976 350.238068 172.547791 345.727051 172.600876 340.113342 C 172.600876 334.535461 168.009857 330.030243 162.346176 330.030243 Z M 161.766937 301.314941 C 157.162018 301.279266 153.398514 304.980347 153.357224 309.585236 C 153.357224 314.165527 157.111557 317.866211 161.766937 317.866211 C 163.980286 317.883331 166.109772 317.020508 167.68692 315.467499 C 169.264053 313.91449 170.159637 311.798553 170.176651 309.585236 C 170.135361 304.980347 166.371841 301.279266 161.766937 301.314941 Z M 170.026474 273.125244 C 167.939301 273.108124 165.930969 273.92157 164.444046 275.386383 C 162.957108 276.851166 162.113632 278.847076 162.099457 280.934265 C 162.099457 285.235687 165.639267 288.732574 170.037201 288.732574 C 174.413681 288.732574 177.964218 285.235687 177.964218 280.934265 C 177.94722 278.8461 177.101349 276.85022 175.612717 275.385742 C 174.1241 273.921234 172.114655 273.108093 170.026474 273.125244 Z M 184.335861 251.189209 C 182.578705 251.174927 180.887985 251.860016 179.636429 253.093475 C 178.384872 254.326935 177.675201 256.007477 177.663864 257.764648 C 177.663864 261.390259 180.656616 264.329376 184.335861 264.329376 C 186.091171 264.343658 187.780258 263.660004 189.031525 262.428894 C 190.282776 261.197754 190.993683 259.519958 191.007858 257.764648 C 190.996521 256.007477 190.28685 254.326935 189.035294 253.093475 C 187.783722 251.860016 186.093018 251.174927 184.335861 251.189209 Z M 201.434189 234.841736 C 199.917831 234.830322 198.459076 235.421753 197.378815 236.485931 C 196.298553 237.550079 195.685287 238.999817 195.67395 240.516144 C 195.67395 243.648346 198.248367 246.190552 201.434189 246.190552 C 202.950516 246.201996 204.409286 245.610565 205.489563 244.546387 C 206.569809 243.482239 207.183075 242.032501 207.194412 240.516144 C 207.183075 238.999817 206.569809 237.550079 205.489563 236.485931 C 204.409286 235.421753 202.950516 234.830322 201.434189 234.841736 Z M 219.519363 223.1604 C 216.79837 223.142548 214.576508 225.330811 214.552902 228.051758 C 214.582382 230.768494 216.802505 232.950256 219.519363 232.932404 C 222.236191 232.950256 224.456345 230.768494 224.485809 228.051758 C 224.462204 225.330811 222.240356 223.142548 219.519363 223.1604 Z M 240.007309 214.160706 C 238.49382 214.149292 237.037766 214.739594 235.959518 215.801758 C 234.881271 216.863892 234.26915 218.310913 234.257813 219.824402 C 234.257813 222.945862 236.832214 225.488098 240.018036 225.488098 C 243.167328 225.50592 245.738037 222.973602 245.767532 219.824402 C 245.756195 218.310913 245.144058 216.863892 244.065811 215.801758 C 242.987564 214.739594 241.531525 214.149292 240.018036 214.160706 Z M 263.992157 208.475586 C 260.333374 208.451782 257.344818 211.392334 257.309448 215.051025 C 257.309448 218.687378 260.312897 221.626495 263.992157 221.626495 C 267.655121 221.656219 270.650208 218.713959 270.685608 215.051025 C 270.671448 213.290009 269.958252 211.606781 268.702972 210.371613 C 267.447693 209.136444 265.753143 208.450562 263.992157 208.464844 Z M 291.559723 207.27417 C 286.764893 207.27417 282.881836 211.092896 282.881836 215.80188 C 282.881836 220.510895 286.764893 224.351044 291.559723 224.351044 C 296.354523 224.351044 300.23761 220.521637 300.23761 215.80188 C 300.23761 211.082153 296.354523 207.27417 291.559723 207.27417 Z M 319.685059 213.817444 C 314.073639 213.781708 309.489319 218.289337 309.430328 223.900543 C 309.430328 229.478394 314.021362 234.005066 319.685059 234.005066 C 322.384888 234.025055 324.982056 232.97168 326.905212 231.076691 C 328.828339 229.181702 329.919922 226.600342 329.939758 223.900543 C 329.886658 218.286835 325.298859 213.775818 319.685059 213.817444 Z M 346.244293 229.68222 C 339.59375 229.68222 334.208984 234.991913 334.208984 241.524475 C 334.208984 248.057007 339.604492 253.377441 346.244293 253.377441 C 352.894836 253.377441 358.279633 248.067749 358.279633 241.524475 C 358.279633 234.981171 352.894836 229.68222 346.244293 229.68222 Z M 367.354401 256.370178 C 360.167542 256.370178 354.332214 262.108948 354.332214 269.177826 C 354.332214 276.257416 360.156799 281.996185 367.354401 281.996185 C 374.552002 281.996185 380.376587 276.257416 380.376587 269.177826 C 380.376587 262.098206 374.552002 256.370178 367.354401 256.370178 Z M 379.443359 291.542938 C 373.790405 291.542938 369.210114 296.048157 369.210114 301.626038 C 369.210114 307.203888 373.790405 311.698364 379.443359 311.698364 C 385.107056 311.698364 389.687317 307.193176 389.687317 301.615295 C 389.687317 296.037415 385.107056 291.532196 379.443359 291.532196 Z M 431.800262 320.880402 C 431.800262 330.148254 424.173584 337.656921 414.744843 337.656921 C 405.337555 337.656921 397.710907 330.148254 397.710907 320.880402 C 397.710907 311.612549 405.337555 304.103882 414.755585 304.103882 C 424.173584 304.103882 431.800262 311.612549 431.800262 320.880402 Z"/>
</svg>
