<?xml version="1.0" encoding="UTF-8"?>
<!-- Generated by Pixelmator Pro 3.1.1 -->
<svg width="1280" height="640" viewBox="0 0 1280 640" xmlns="http://www.w3.org/2000/svg" xmlns:xlink="http://www.w3.org/1999/xlink">
    <linearGradient id="linearGradient1" x1="355.035477" y1="469.969066" x2="355.035477" y2="170.972027" gradientUnits="userSpaceOnUse">
        <stop offset="1e-05" stop-color="#ff9100" stop-opacity="1"/>
        <stop offset="0.05" stop-color="#ff8d00" stop-opacity="1"/>
        <stop offset="0.25" stop-color="#ff8300" stop-opacity="1"/>
        <stop offset="0.5" stop-color="#ff8000" stop-opacity="1"/>
        <stop offset="0.75" stop-color="#ff8300" stop-opacity="1"/>
        <stop offset="0.95" stop-color="#ff8d00" stop-opacity="1"/>
        <stop offset="1" stop-color="#ff9100" stop-opacity="1"/>
    </linearGradient>
    <path id="Path" fill="url(#linearGradient1)" fill-rule="evenodd" stroke="none" d="M 355.074219 470 C 351.64505 469.809479 348.789063 467.142029 348.789063 463.712891 C 348.789063 460.09317 351.454559 457.044922 355.074219 457.044922 C 358.503387 457.044922 361.552734 459.903778 361.552734 463.523438 C 361.552734 467.143097 358.693878 470 355.074219 470 Z M 318.248047 465.548828 C 317.574799 465.552185 316.889618 465.450653 316.210938 465.236328 C 312.591278 464.283783 310.496674 460.664581 311.449219 457.044922 C 312.401764 453.234741 316.210388 450.949799 319.830078 451.902344 C 319.830078 452.092865 320.021484 452.092865 320.021484 451.902344 C 323.831665 453.04541 325.92627 456.85495 324.783203 460.474609 C 323.854492 463.570374 321.165466 465.534302 318.248047 465.548828 Z M 392.048828 465.453125 C 389.007294 465.442139 386.168945 463.33728 385.365234 460.283203 C 384.412689 456.663544 386.6987 452.854889 390.318359 451.902344 C 393.938049 450.949799 397.748627 453.23584 398.701172 456.855469 C 399.653717 460.475128 397.367706 464.283783 393.748047 465.236328 C 393.182465 465.385162 392.612061 465.455139 392.048828 465.453125 Z M 283.507813 453.21875 C 282.919922 453.220245 282.323853 453.164001 281.728516 453.044922 C 276.96582 452.092377 273.918549 447.329132 274.871094 442.566406 C 275.823639 437.80368 280.586884 434.756439 285.349609 435.708984 C 290.112335 436.66153 293.159576 441.422821 292.207031 446.185547 C 291.373566 450.352905 287.623108 453.208313 283.507813 453.21875 Z M 426.642578 453.21875 C 422.527283 453.208313 418.776825 450.352905 417.943359 446.185547 C 416.990814 441.422821 420.038055 436.66153 424.800781 435.708984 C 429.563507 434.756439 434.326752 437.80368 435.279297 442.566406 C 436.231842 447.329132 433.184601 452.092377 428.421875 453.044922 C 427.826538 453.164001 427.230469 453.220245 426.642578 453.21875 Z M 342.039063 438.330078 C 338.783295 438.350952 335.928497 436.185486 335.261719 432.851563 C 334.499664 429.041382 336.976013 425.420227 340.595703 424.658203 C 344.405884 423.896118 348.027039 426.182007 348.789063 429.992188 C 349.551117 433.802368 347.263306 437.423523 343.453125 438.185547 C 342.976868 438.280823 342.504181 438.327087 342.039063 438.330078 Z M 371.228516 436.322266 C 368.658508 436.260406 366.2789 434.296753 365.933594 431.707031 C 365.552582 428.849426 367.648224 425.99231 370.505859 425.611328 C 373.363495 425.230286 376.22052 427.325989 376.601563 430.183594 C 376.982574 433.041229 374.886932 435.898315 372.029297 436.279297 C 371.761383 436.315002 371.494385 436.328674 371.228516 436.322266 Z M 313.775391 432.722656 C 310.102661 432.683258 306.696869 430.070068 305.732422 426.373047 C 304.589386 421.800842 307.257843 417.229889 311.830078 416.277344 C 316.211761 415.134338 320.782745 417.991364 321.925781 422.373047 C 323.068848 426.75473 320.211792 431.325745 315.830078 432.46875 C 315.145447 432.647339 314.455536 432.72995 313.775391 432.722656 Z M 456.117188 432.419922 C 450.892548 432.465759 446.429657 428.678284 445.566406 423.326172 C 444.613861 417.42038 448.615723 412.085358 454.521484 411.132813 C 460.236755 410.180267 465.760345 414.181213 466.712891 419.896484 C 467.665436 425.802216 463.855011 431.326752 457.949219 432.279297 C 457.949219 432.279297 457.759766 432.279297 457.759766 432.279297 C 457.206116 432.368591 456.657654 432.415161 456.117188 432.419922 Z M 253.652344 432.228516 C 253.111862 432.223755 252.563431 432.177185 252.009766 432.087891 C 246.294495 431.135345 242.293549 425.802216 243.246094 419.896484 C 244.198639 414.181213 249.34227 409.988861 255.248047 410.941406 C 261.153809 411.893951 265.15567 417.228973 264.203125 423.134766 C 263.339905 428.486877 258.876984 432.274353 253.652344 432.228516 Z M 399.363281 428.121094 C 397.380798 428.112183 395.558472 426.896545 394.701172 425.039063 C 393.558105 422.371948 394.890594 419.51416 397.367188 418.371094 C 399.843811 417.228027 402.89212 418.562469 404.035156 421.039063 C 405.178223 423.706238 403.845764 426.564026 401.369141 427.707031 C 400.702362 427.992798 400.024109 428.124084 399.363281 428.121094 Z M 288.154297 420.564453 C 283.727112 420.571716 279.693878 417.717377 278.300781 413.228516 C 276.586182 407.703705 279.823029 401.797546 284.966797 400.273438 C 290.491547 398.558868 296.398682 401.608063 298.113281 407.132813 C 299.82785 412.657562 296.778687 418.371368 291.253906 420.085938 C 290.218018 420.40741 289.175964 420.562775 288.154297 420.564453 Z M 424.380859 413.355469 C 422.924988 413.329498 421.491547 412.692444 420.419922 411.513672 C 418.514832 409.2276 418.704102 405.797668 420.990234 403.892578 C 420.990234 403.702087 421.181641 403.70224 421.181641 403.511719 C 423.658264 401.79715 427.088165 402.179626 428.802734 404.65625 C 430.517334 407.132843 430.134796 410.56076 427.658203 412.275391 C 426.65802 413.025513 425.513214 413.375671 424.380859 413.355469 Z M 344.193359 412.541016 C 342.294586 412.515808 340.398987 411.799866 338.880859 410.371094 C 335.642212 407.322937 335.451843 402.179016 338.5 399.130859 C 341.548157 395.892242 346.501587 395.701843 349.740234 398.75 C 352.978912 401.798157 353.16922 406.751556 350.121094 409.990234 C 348.50177 411.710785 346.345306 412.56958 344.193359 412.541016 Z M 370.679688 410.039063 C 369.162964 410.010986 367.666779 409.436279 366.505859 408.275391 C 364.029236 405.989258 363.83783 401.988312 366.314453 399.511719 C 368.791077 397.035126 372.792938 397.034241 375.269531 399.320313 C 377.746155 401.606445 377.745087 405.607391 375.458984 408.083984 C 374.14328 409.399658 372.398651 410.070862 370.679688 410.039063 Z M 318.783203 406.158203 C 316.636505 406.121826 314.477966 405.310547 312.78125 403.703125 C 309.16156 400.273926 308.97229 394.559113 312.210938 390.939453 C 315.640106 387.319794 321.35495 387.129456 324.974609 390.558594 C 328.594269 393.987793 328.784637 399.702637 325.355469 403.322266 C 323.634949 405.245209 321.216156 406.199402 318.783203 406.158203 Z M 231.070313 405.298828 C 230.623627 405.297791 230.173157 405.27417 229.720703 405.226563 C 222.481369 404.464539 217.146164 397.797974 217.908203 390.558594 C 218.670242 383.319305 225.14827 377.98407 232.578125 378.746094 C 239.817459 379.508118 245.150711 386.176697 244.388672 393.416016 C 243.674255 400.202942 237.770676 405.314178 231.070313 405.298828 Z M 479.080078 405.298828 C 472.3797 405.314178 466.474152 400.202942 465.759766 393.416016 C 464.997711 386.176697 470.332916 379.508118 477.572266 378.746094 C 484.811615 377.98407 491.480164 383.319305 492.242188 390.558594 C 493.004211 397.988495 487.669037 404.464539 480.429688 405.226563 C 479.977234 405.27417 479.526764 405.297791 479.080078 405.298828 Z M 267.322266 401.316406 C 262.647339 401.280945 258.219208 398.410767 256.582031 393.796875 C 254.48642 387.700562 257.534729 381.222565 263.25 379.126953 C 269.155762 377.031403 275.442413 380.079681 277.728516 385.794922 C 280.014618 391.700714 277.157715 398.368164 271.251953 400.654297 C 269.960052 401.112701 268.631256 401.326355 267.322266 401.316406 Z M 395.916016 399.964844 C 394.606262 399.988647 393.2724 399.511139 392.224609 398.558594 C 390.319519 396.653503 390.128113 393.415863 392.033203 391.320313 C 394.128784 389.224701 397.177856 389.223816 399.273438 391.128906 C 401.369049 393.224518 401.367981 396.273529 399.462891 398.369141 C 398.510345 399.416931 397.225769 399.94104 395.916016 399.964844 Z M 444.607422 394.089844 C 442.599426 394.066101 440.636658 393.130127 439.279297 391.320313 C 436.993195 388.272156 437.565155 383.889587 440.613281 381.603516 C 443.851929 379.317383 448.043976 380.079681 450.330078 383.318359 C 452.42569 386.366516 451.663361 390.557617 448.615234 392.84375 C 447.376923 393.695099 445.981323 394.106079 444.607422 394.089844 Z M 296.943359 392.203125 C 294.553955 392.161194 292.17807 391.302216 290.302734 389.605469 C 285.921051 385.795288 285.539429 379.126709 289.349609 374.935547 C 293.350311 370.934845 299.636932 370.744507 303.828125 374.554688 C 308.019318 378.555389 308.210571 385.033386 304.400391 389.224609 C 302.376251 391.248779 299.651367 392.250671 296.943359 392.203125 Z M 356.9375 391.060547 C 356.254639 391.062622 355.563446 390.962372 354.884766 390.748047 C 351.265076 389.60498 349.169617 385.794556 349.931641 381.984375 C 351.074707 378.174194 355.075653 376.079651 358.695313 377.222656 C 362.505493 378.365723 364.600098 382.366699 363.457031 385.986328 C 363.457031 386.176849 363.457031 386.175781 363.457031 386.175781 C 362.683075 389.11676 359.896606 391.051483 356.9375 391.060547 Z M 336.859375 389.501953 C 336.200439 389.492828 335.535736 389.403198 334.880859 389.224609 C 330.689667 388.081543 328.213318 383.509583 329.546875 379.318359 C 330.689941 374.936676 335.261932 372.459381 339.453125 373.792969 C 343.644318 374.936035 346.120667 379.507996 344.787109 383.699219 C 343.822662 387.235474 340.417664 389.551239 336.859375 389.501953 Z M 376.296875 386.611328 C 375.766083 386.602234 375.228607 386.523468 374.697266 386.367188 C 371.458588 385.414642 369.553314 381.79425 370.505859 378.746094 C 371.648926 375.507416 375.077759 373.602142 378.316406 374.554688 C 381.555054 375.507233 383.460358 378.937164 382.507813 382.175781 C 381.579102 384.80719 379.142151 386.558105 376.523438 386.611328 C 376.447906 386.612854 376.372711 386.61261 376.296875 386.611328 Z M 416.6875 382.199219 C 415.770325 382.179779 414.847229 381.847778 414.132813 381.222656 C 412.608734 379.88913 412.607849 377.41272 413.941406 375.888672 C 415.465485 374.364563 417.752197 374.363678 419.466797 375.697266 C 420.800354 377.221313 420.800354 379.509155 419.466797 381.033203 C 418.758331 381.842896 417.726959 382.221252 416.6875 382.199219 Z M 319.390625 379.820313 C 318.717377 379.822418 318.032196 379.722137 317.353516 379.507813 C 313.543335 378.555267 311.44873 374.555206 312.591797 370.935547 C 313.544342 367.125366 317.544403 365.028809 321.164063 366.171875 C 324.783722 367.314941 327.070801 371.125366 325.927734 374.935547 C 324.998993 377.876526 322.308014 379.811249 319.390625 379.820313 Z M 252.505859 377.15625 C 247.638962 377.209839 242.961288 374.316681 240.960938 369.601563 C 238.103302 363.314789 241.150711 355.885864 247.4375 353.21875 C 253.724289 350.361115 261.153198 353.408478 263.820313 359.695313 C 266.677948 365.982086 263.630554 373.412903 257.34375 376.080078 C 255.772049 376.794495 254.128159 377.138397 252.505859 377.15625 Z M 393.865234 375.705078 C 393.79657 375.705841 393.727295 375.705231 393.658203 375.703125 C 393.248718 375.690582 392.830811 375.626892 392.414063 375.507813 C 389.937439 374.745789 388.413727 372.079224 389.175781 369.412109 C 389.937805 366.935455 392.60434 365.409851 395.271484 366.171875 C 397.938599 366.933899 399.273743 369.602356 398.511719 372.269531 C 397.888855 374.293854 395.993378 375.681824 393.865234 375.705078 Z M 216.75 372.095703 C 216.501999 372.096313 216.253952 372.090027 216.003906 372.078125 C 207.812042 371.697083 201.714691 364.838348 202.095703 356.646484 C 202.47673 348.645081 209.525986 342.358307 217.527344 342.548828 C 225.528702 342.92981 231.816559 349.788544 231.435547 357.980469 C 231.435547 358.170929 231.435547 358.171875 231.435547 358.171875 C 231.066437 366.107788 224.438248 372.076752 216.75 372.095703 Z M 493.191406 372.095703 C 485.341156 372.065765 478.894501 365.923218 478.525391 358.171875 C 478.144379 350.170532 484.239746 343.121216 492.431641 342.740234 C 500.623474 342.359192 507.482269 348.645081 507.863281 356.646484 C 508.244293 364.838348 502.146942 371.697083 493.955078 372.078125 C 493.699097 372.090027 493.444641 372.09668 493.191406 372.095703 Z M 363.341797 371.533203 C 361.428833 371.506104 359.612122 370.482117 358.695313 368.648438 C 357.171265 365.981323 358.123901 362.552338 360.791016 361.21875 C 363.45813 359.885223 366.696625 360.838745 368.220703 363.505859 C 369.744781 365.982452 368.792114 369.411499 366.125 370.935547 C 365.934479 370.935547 365.933594 370.935547 365.933594 370.935547 C 365.100128 371.352295 364.211334 371.545532 363.341797 371.533203 Z M 348.888672 371.455078 C 347.150177 371.43512 345.514465 370.542542 344.597656 368.839844 C 343.264099 366.363251 344.215851 363.505463 346.501953 362.171875 C 348.978577 360.838348 351.836365 361.7901 353.169922 364.076172 C 354.503479 366.552826 353.551727 369.411499 351.265625 370.935547 C 350.491669 371.292755 349.678894 371.464142 348.888672 371.455078 Z M 280.539063 370.152344 C 278.397919 370.115967 276.287109 369.304688 274.679688 367.697266 C 271.060028 364.268127 270.869659 358.553253 274.298828 354.933594 C 277.537476 351.313934 283.253357 351.121643 286.873047 354.550781 C 290.492706 357.97998 290.683044 363.696747 287.253906 367.316406 C 285.432159 369.239349 282.965668 370.193573 280.539063 370.152344 Z M 458.664063 370.005859 C 455.872192 370.003296 453.097931 368.60788 451.472656 365.982422 C 449.186523 362.172241 450.329376 357.027435 454.330078 354.550781 C 458.33075 352.264709 463.28421 353.407623 465.570313 357.027344 C 468.046936 360.837524 466.903931 366.171844 463.09375 368.648438 C 463.09375 368.648438 462.902344 368.839844 462.902344 368.839844 C 461.59259 369.625702 460.126465 370.007202 458.664063 370.005859 Z M 377.037109 367.353516 C 374.805939 367.368347 372.637756 366.171783 371.458984 364.076172 C 369.744415 361.028015 370.887421 357.21936 373.935547 355.695313 C 374.126068 355.695313 374.125 355.695313 374.125 355.695313 C 377.173126 354.171265 380.983734 355.313171 382.507813 358.361328 C 384.222412 361.218964 383.079407 365.028625 380.03125 366.552734 C 379.078705 367.088531 378.05127 367.346771 377.037109 367.353516 Z M 334.953125 366.322266 C 333.463806 366.327911 332.047546 365.516907 331.261719 364.076172 C 330.118652 361.98056 330.880981 359.504395 332.976563 358.361328 C 334.881653 357.218262 337.54834 357.980621 338.691406 360.076172 C 339.834442 362.171783 339.072174 364.83847 336.976563 365.791016 C 336.321686 366.148224 335.630096 366.319702 334.953125 366.322266 Z M 304.890625 365.363281 C 304.287567 365.35199 303.673645 365.243622 303.066406 365.029297 C 299.827759 364.076752 297.922455 360.648834 298.875 357.410156 C 299.827545 354.171539 303.257446 352.266205 306.496094 353.21875 C 309.734741 354.171295 311.638092 357.79068 310.685547 361.029297 C 309.911591 363.660706 307.503876 365.412262 304.890625 365.363281 Z M 431.675781 361.775391 C 430.446228 361.783691 429.212799 361.350037 428.230469 360.457031 C 426.134888 358.551941 426.133972 355.314301 428.039063 353.21875 C 429.944153 351.123138 433.183685 350.931732 435.279297 353.027344 C 437.184387 354.932434 437.18335 357.980621 435.46875 360.076172 C 434.456665 361.189453 433.069275 361.765991 431.675781 361.775391 Z M 407.507813 360.222656 C 407.114044 360.231018 406.715179 360.18335 406.322266 360.076172 C 404.417175 359.504669 403.082764 357.409119 403.654297 355.123047 C 404.22583 353.027435 406.51181 351.883575 408.607422 352.455078 C 410.703003 353.026642 411.846924 355.314545 411.275391 357.410156 C 410.811035 359.112854 409.214111 360.186401 407.507813 360.222656 Z M 388.634766 357.900391 C 386.665558 357.878906 384.758636 356.767242 383.841797 354.933594 C 382.50824 352.266479 383.459839 349.026001 386.126953 347.501953 C 388.794067 346.168365 392.034546 347.121948 393.558594 349.789063 C 394.892181 352.456177 393.938629 355.885223 391.271484 357.21875 C 390.438019 357.695038 389.529877 357.910156 388.634766 357.900391 Z M 322.982422 357.632813 C 321.680359 357.602112 320.484955 356.874084 319.830078 355.695313 C 318.877533 353.980743 319.640869 351.694733 321.355469 350.742188 C 323.070038 349.789642 325.356049 350.550995 326.308594 352.265625 C 327.261139 353.980194 326.498688 356.266205 324.974609 357.21875 C 324.784088 357.21875 324.783203 357.21875 324.783203 357.21875 C 324.187866 357.516418 323.57428 357.646759 322.982422 357.632813 Z M 244.160156 348.160156 C 240.039841 348.084473 236.150055 345.766571 234.292969 341.787109 C 231.435333 336.071838 233.720276 329.213104 239.435547 326.355469 C 244.960312 323.497833 251.818146 325.784729 254.675781 331.5 C 257.533417 337.21524 255.248474 344.074005 249.533203 346.931641 C 247.925781 347.735352 246.22818 348.13205 244.558594 348.160156 C 244.425262 348.162415 244.293076 348.162598 244.160156 348.160156 Z M 295.21875 346.746094 C 294.731232 346.756409 294.23056 346.693665 293.730469 346.550781 C 291.253845 345.788696 289.730133 343.120239 290.492188 340.453125 C 290.492188 340.262604 290.492188 340.263672 290.492188 340.263672 C 291.254211 337.596558 294.111267 336.263336 296.587891 337.025391 C 299.064514 337.787415 300.590179 340.644501 299.828125 343.121094 C 299.208984 345.288116 297.33136 346.701324 295.21875 346.746094 Z M 314.146484 345.552734 C 313.037292 345.529205 311.973145 344.930634 311.449219 343.882813 C 310.687195 342.358765 311.257172 340.45343 312.78125 339.691406 C 314.305298 338.929382 316.21167 339.501343 316.783203 341.025391 C 317.735748 342.5495 317.16272 344.454773 315.638672 345.216797 C 315.162384 345.454926 314.650665 345.563446 314.146484 345.552734 Z M 396.791016 345.361328 C 395.058167 345.354156 393.330872 344.501404 392.414063 342.929688 C 391.270996 340.453094 392.033173 337.597229 394.509766 336.263672 C 396.986389 334.930115 399.844177 335.881897 401.177734 338.167969 C 402.320801 340.644623 401.558655 343.502411 399.082031 344.835938 C 398.367615 345.193146 397.578674 345.364594 396.791016 345.361328 Z M 271.609375 344.148438 C 269.710602 344.12323 267.815002 343.407349 266.296875 341.978516 C 263.058228 338.93042 262.867859 333.976929 265.916016 330.738281 C 268.964142 327.499664 273.917603 327.309265 277.15625 330.357422 C 280.394897 333.405518 280.585266 338.358978 277.537109 341.597656 C 275.917786 343.318176 273.761322 344.177002 271.609375 344.148438 Z M 466.015625 343.884766 C 462.357025 343.91803 458.771271 341.954193 456.806641 338.548828 C 453.949005 333.40509 455.853394 327.117401 460.806641 324.259766 C 465.950378 321.592651 472.237183 323.307404 474.904297 328.451172 C 477.761932 333.404358 475.857513 339.691193 470.904297 342.548828 C 469.356415 343.441833 467.678619 343.869659 466.015625 343.884766 Z M 415.953125 341.3125 C 415.664001 341.318909 415.371704 341.288239 415.085938 341.216797 C 413.561859 340.835815 412.798676 339.119751 413.179688 337.595703 C 413.751221 336.071655 415.276733 335.119904 416.800781 335.691406 C 418.32486 336.072449 419.086121 337.786499 418.705078 339.310547 C 418.395508 340.548889 417.205933 341.284698 415.953125 341.3125 Z M 439.375 337.572266 C 437.755676 337.596069 436.136749 337.023895 434.898438 335.880859 C 432.231323 333.404236 432.231476 329.404388 434.517578 326.927734 C 436.994202 324.451141 440.804474 324.26062 443.662109 326.927734 C 446.138733 329.213867 446.137665 333.214813 443.851563 335.691406 C 442.613251 336.929688 440.994324 337.548462 439.375 337.572266 Z M 212.001953 336.453125 C 203.04805 336.453125 196 329.2146 196 320.451172 C 196 311.687744 203.238556 304.447266 212.001953 304.447266 C 220.955856 304.447266 228.005859 311.687744 228.005859 320.451172 C 228.005859 329.2146 220.76535 336.453125 212.001953 336.453125 Z M 498.146484 336.453125 C 489.383087 336.453125 482.144531 329.2146 482.144531 320.451172 C 482.144531 311.687744 489.192566 304.447266 498.146484 304.447266 C 506.909882 304.447266 514.150391 311.497223 514.150391 320.451172 C 514.150391 329.2146 506.909882 336.453125 498.146484 336.453125 Z M 309.265625 332.486328 C 307.963562 332.455627 306.768158 331.725677 306.113281 330.546875 C 305.160736 328.832306 305.924103 326.546295 307.638672 325.59375 C 309.543762 324.641205 311.639252 325.21405 312.591797 327.119141 C 312.591797 327.309662 312.591797 327.308594 312.591797 327.308594 C 313.544342 329.023163 312.781006 331.11972 311.066406 332.072266 C 310.471069 332.369934 309.857483 332.500275 309.265625 332.486328 Z M 401.021484 330.894531 C 399.488678 330.912933 398.022064 330.141785 397.367188 328.832031 C 396.224152 326.73642 396.98642 324.070801 399.082031 322.927734 C 401.177612 321.784729 403.653809 322.546967 404.796875 324.642578 C 405.939911 326.547668 405.179596 329.214355 403.083984 330.357422 C 402.429108 330.7146 401.718231 330.886169 401.021484 330.894531 Z M 291.488281 326.191406 C 291.094513 326.187073 290.695648 326.117493 290.302734 325.974609 C 288.207153 325.212585 287.063232 323.117096 287.634766 321.021484 C 288.206299 318.925934 290.49231 317.783966 292.587891 318.355469 C 294.683502 318.927032 295.827393 321.212982 295.255859 323.308594 C 294.791504 325.011292 293.19458 326.210144 291.488281 326.191406 Z M 418.550781 322.691406 C 418.221313 322.682922 417.889923 322.636169 417.5625 322.546875 C 415.466888 321.784851 414.323029 319.689362 414.894531 317.59375 C 415.466064 315.498138 417.561554 314.163757 419.847656 314.925781 C 421.943268 315.497284 423.087158 317.783295 422.515625 319.878906 C 422.033417 321.647034 420.329926 322.737213 418.550781 322.691406 Z M 309.189453 318.503906 C 307.64386 318.509521 306.137421 317.7005 305.351563 316.259766 C 304.208527 314.164215 304.970795 311.687988 307.066406 310.544922 C 309.161987 309.401917 311.82962 310.163269 312.972656 312.068359 C 314.115723 314.163971 313.353394 316.831543 311.257813 317.974609 C 310.602936 318.331787 309.891998 318.501343 309.189453 318.503906 Z M 244.257813 317.898438 C 240.586426 317.938843 236.958862 316.104462 234.863281 312.830078 C 232.005646 307.68631 233.912018 301.398651 238.865234 298.541016 C 239.05574 298.350494 239.245041 298.160156 239.435547 298.160156 C 244.579285 295.493042 250.866074 297.3992 253.533203 302.542969 C 256.200317 307.686676 254.296082 313.973511 249.152344 316.640625 C 247.604462 317.474091 245.92662 317.880066 244.257813 317.898438 Z M 270.851563 315.927734 C 269.334839 315.899658 267.840607 315.324951 266.679688 314.164063 C 264.393585 311.87793 264.202148 308.066437 266.488281 305.589844 C 268.964874 302.922668 272.774261 302.733459 275.441406 305.019531 C 277.917999 307.496185 277.918915 311.496002 275.632813 313.972656 C 274.317139 315.28833 272.570526 315.959564 270.851563 315.927734 Z M 465.333984 315.773438 C 461.201508 315.697754 457.272949 313.379852 455.283203 309.400391 C 452.425568 303.68512 454.71051 296.828339 460.425781 293.970703 C 466.141052 291.113068 472.999786 293.398895 475.857422 299.304688 C 478.715057 304.829437 476.430115 311.687286 470.714844 314.544922 C 469.107422 315.348633 467.408203 315.745331 465.734375 315.773438 C 465.600708 315.775696 465.467285 315.775879 465.333984 315.773438 Z M 400.603516 315.720703 C 399.307068 315.690002 398.022064 314.961975 397.367188 313.783203 C 396.414642 311.878113 397.178009 309.782623 398.892578 308.830078 C 400.607178 307.877533 402.893158 308.638885 403.845703 310.353516 C 404.798248 312.068085 404.034882 314.354095 402.320313 315.306641 C 401.784515 315.604309 401.19281 315.73465 400.603516 315.720703 Z M 438.304688 312.714844 C 436.405914 312.689636 434.510315 311.973755 432.992188 310.544922 C 429.75354 307.496826 429.563202 302.543365 432.611328 299.304688 C 435.468964 296.066071 440.423462 296.066193 443.662109 298.923828 C 446.900757 301.781464 447.280548 306.923431 444.232422 310.162109 C 442.613098 311.882629 440.456635 312.743408 438.304688 312.714844 Z M 294.027344 305.304688 C 293.73822 305.312347 293.445923 305.280426 293.160156 305.208984 C 291.636078 304.827942 290.872894 303.113892 291.253906 301.589844 C 291.634918 300.065735 293.350922 299.304504 294.875 299.685547 C 296.399048 300.25705 297.3508 301.779755 296.779297 303.113281 C 296.469696 304.506378 295.280151 305.271423 294.027344 305.304688 Z M 313.074219 305.248047 C 311.335724 305.24649 309.698059 304.304108 308.78125 302.732422 C 307.638184 300.255768 308.59082 297.39798 310.876953 296.064453 C 313.353546 294.730865 316.211334 295.68457 317.544922 297.970703 C 318.687958 300.447296 317.925842 303.305084 315.449219 304.638672 C 314.675262 305.055389 313.864441 305.248749 313.074219 305.248047 Z M 415.048828 304.072266 C 414.56131 304.081329 414.060638 304.019836 413.560547 303.876953 C 411.083923 303.114929 409.560242 300.446411 410.322266 297.779297 C 411.08429 295.112183 413.750854 293.58847 416.417969 294.541016 C 418.894592 295.30304 420.420258 297.969604 419.658203 300.636719 C 419.039063 302.648956 417.161469 304.03299 415.048828 304.072266 Z M 395.722656 301.484375 C 394.668762 301.466187 393.675873 300.875153 393.175781 299.875 C 392.413757 298.350891 392.985718 296.445618 394.509766 295.683594 C 396.033844 294.92157 397.939117 295.493469 398.701172 297.017578 C 399.463196 298.351105 398.891266 300.257507 397.367188 301.019531 C 396.843292 301.346954 396.274689 301.493896 395.722656 301.484375 Z M 493.574219 298.386719 C 493.196594 298.389526 492.815643 298.378357 492.431641 298.351563 C 484.430237 297.78006 478.143341 290.922333 478.714844 282.730469 C 479.095886 274.538574 486.145142 268.441284 494.146484 268.822266 C 502.338379 269.203308 508.433746 276.062073 508.052734 284.253906 C 508.052734 284.253906 508.052734 284.253723 508.052734 284.634766 C 507.507996 292.261047 501.252533 298.329437 493.574219 298.386719 Z M 216.78125 298.177734 C 209.093002 298.147827 202.464828 292.005249 202.095703 284.253906 C 201.714691 276.062073 207.812042 269.203308 216.003906 268.822266 C 224.19577 268.441284 231.054535 274.538574 231.435547 282.730469 C 231.816559 290.731812 225.719208 297.779175 217.527344 298.160156 C 217.277298 298.172058 217.029251 298.178711 216.78125 298.177734 Z M 321.423828 293.804688 C 319.498077 293.777557 317.639587 292.755524 316.591797 290.921875 C 315.258209 288.254761 316.211761 284.825714 318.878906 283.492188 C 321.546021 282.1586 324.975037 283.110229 326.308594 285.777344 C 327.642151 288.444519 326.688599 291.873444 324.021484 293.207031 C 323.188019 293.623749 322.299164 293.817017 321.423828 293.804688 Z M 387.078125 290.574219 C 385.781677 290.543518 384.496674 289.813568 383.841797 288.634766 C 382.889252 286.729675 383.460144 284.634186 385.365234 283.681641 C 387.079803 282.729095 389.365814 283.492462 390.318359 285.207031 C 391.270905 286.9216 390.509521 289.207611 388.794922 290.160156 C 388.259125 290.457825 387.667419 290.588165 387.078125 290.574219 Z M 278.5625 289.279297 C 277.252747 289.303101 275.918884 288.825592 274.871094 287.873047 C 272.775482 285.967957 272.774597 282.730377 274.679688 280.634766 C 276.584778 278.539185 279.82431 278.5383 281.919922 280.443359 C 284.015533 282.34845 284.014465 285.588043 282.109375 287.683594 C 281.15683 288.731384 279.872253 289.255493 278.5625 289.279297 Z M 429.296875 288.804688 C 427.130554 288.768341 424.97406 287.957031 423.277344 286.349609 C 419.657654 282.92041 419.467316 277.205597 422.896484 273.585938 C 426.325623 269.966278 432.040466 269.775879 435.660156 273.205078 C 439.279816 276.634216 439.470154 282.349091 436.041016 285.96875 C 434.219269 287.891693 431.752045 288.845886 429.296875 288.804688 Z M 457.685547 288.679688 C 452.818634 288.706512 448.139008 285.920166 446.138672 281.205078 C 443.471527 274.918304 446.32843 267.489441 452.615234 264.822266 C 459.09256 262.155151 466.332855 265.392914 469 271.679688 C 471.476624 277.776001 468.617798 284.825958 462.521484 287.683594 C 460.949799 288.350372 459.307861 288.670746 457.685547 288.679688 Z M 302.505859 288.400391 C 302.191345 288.391907 301.868439 288.343201 301.541016 288.253906 C 299.445404 287.682343 298.112061 285.587799 298.683594 283.492188 C 299.255096 281.396576 301.541138 280.252686 303.636719 280.824219 C 305.7323 281.395721 307.066742 283.492279 306.304688 285.587891 C 305.661743 287.356018 304.204163 288.446198 302.505859 288.400391 Z M 405.431641 287.738281 C 405.346741 287.739349 405.261017 287.738892 405.175781 287.736328 C 404.670624 287.721222 404.160339 287.641022 403.654297 287.492188 C 400.415649 286.539642 398.510345 283.111664 399.462891 279.873047 C 400.415436 276.634399 403.845337 274.729095 407.083984 275.681641 C 410.322632 276.634186 412.227936 280.062134 411.275391 283.300781 C 410.496796 285.948029 408.06311 287.705231 405.431641 287.738281 Z M 251.382813 287.521484 C 248.576187 287.533691 245.758102 286.182068 244.007813 283.681641 C 241.531189 279.680939 242.865601 274.53714 246.675781 272.060547 C 250.676468 269.583893 255.820267 270.918335 258.296875 274.728516 C 260.773499 278.729218 259.629578 283.872955 255.628906 286.349609 C 254.319153 287.135437 252.852951 287.515076 251.382813 287.521484 Z M 333.037109 285.814453 C 330.818726 285.829285 328.690369 284.634674 327.642578 282.539063 C 325.928009 279.490936 327.071014 275.680298 330.119141 274.15625 C 333.167267 272.44162 336.785431 273.584656 338.5 276.632813 C 340.214569 279.680939 339.071594 283.491577 336.023438 285.015625 C 335.070892 285.551422 334.045471 285.807709 333.037109 285.814453 Z M 375.044922 282.878906 C 373.561218 282.884552 372.053406 282.0755 371.267578 280.634766 C 370.315033 278.539185 371.077332 275.870514 372.982422 274.917969 C 375.078033 273.774902 377.55423 274.537201 378.697266 276.632813 C 379.840332 278.537903 379.079956 281.206573 376.984375 282.349609 C 376.389038 282.706818 375.71933 282.876343 375.044922 282.878906 Z M 346.761719 280.279297 C 344.835999 280.252167 342.977478 279.22818 341.929688 277.394531 C 340.59613 274.727417 341.548798 271.680298 344.025391 270.15625 C 346.692535 268.632141 350.122437 269.584778 351.646484 272.251953 C 352.980072 274.919067 352.02652 278.157562 349.359375 279.681641 C 348.525909 280.098389 347.637054 280.291626 346.761719 280.279297 Z M 361.210938 279.337891 C 359.534363 279.336334 357.897278 278.395905 356.980469 276.824219 C 355.646912 274.347565 356.599579 271.489777 359.076172 270.15625 C 361.362305 268.822662 364.219177 269.774414 365.552734 272.060547 C 366.69577 274.53714 365.933655 277.394928 363.457031 278.728516 C 362.742615 279.145233 361.973022 279.338593 361.210938 279.337891 Z M 390.783203 275.023438 C 390.183167 275.011292 389.58017 274.916046 388.986328 274.728516 C 385.366669 273.585449 383.07959 269.584503 384.222656 265.964844 C 385.365692 262.345184 389.176147 260.25058 392.986328 261.203125 C 396.796509 262.346191 398.891083 266.345184 397.748047 269.964844 C 396.819305 272.905823 394.005585 274.967194 391.041016 275.023438 C 390.955505 275.025055 390.868927 275.025177 390.783203 275.023438 Z M 316.136719 274.925781 C 316.068085 274.926544 315.998779 274.925934 315.929688 274.923828 C 315.520233 274.911285 315.104248 274.847595 314.6875 274.728516 C 312.210876 273.966492 310.687195 271.299988 311.449219 268.632813 C 312.211273 266.156219 314.877777 264.630554 317.544922 265.392578 C 320.212036 266.154602 321.735748 268.82312 320.783203 271.490234 C 320.160309 273.514587 318.264832 274.902527 316.136719 274.925781 Z M 412.851563 269.039063 C 410.372833 268.985962 407.906036 268.031586 405.941406 266.15625 C 401.750214 262.346069 401.559875 255.676483 405.560547 251.675781 C 409.370728 247.484619 416.038361 247.29422 420.039063 251.294922 C 424.420746 255.105103 424.610077 261.772797 420.609375 265.773438 C 418.484009 268.000031 415.660767 269.099243 412.851563 269.039063 Z M 373.052734 267.470703 C 372.274841 267.474762 371.483124 267.357483 370.697266 267.107422 C 366.506073 265.964355 364.028809 261.392395 365.171875 257.201172 C 366.505432 253.01001 370.886932 250.5336 375.078125 251.867188 C 379.459839 253.010254 381.937073 257.582214 380.603516 261.773438 C 379.519989 265.178741 376.423615 267.453186 373.052734 267.470703 Z M 333.429688 266.78125 C 332.899872 266.772125 332.363373 266.693359 331.832031 266.537109 C 328.593384 265.394043 326.690033 261.965179 327.642578 258.726563 C 328.785645 255.487885 332.214478 253.582611 335.453125 254.535156 C 338.691803 255.678223 340.596191 259.107025 339.453125 262.345703 C 338.679169 264.977112 336.269501 266.728027 333.65625 266.78125 C 333.580872 266.782776 333.505371 266.782562 333.429688 266.78125 Z M 293.361328 266.064453 C 292.469025 266.06427 291.587463 265.726135 290.873047 265.011719 C 289.348969 263.487671 289.159546 261.201782 290.683594 259.677734 C 292.017181 258.153625 294.4935 258.154694 296.017578 259.488281 C 297.541656 261.012329 297.540588 263.488739 296.207031 264.822266 C 295.397369 265.631958 294.37262 266.064636 293.361328 266.064453 Z M 353.320313 263.990234 C 352.636169 263.993591 351.944305 263.894012 351.265625 263.679688 C 347.455444 262.536621 345.358917 258.535675 346.501953 254.916016 C 347.64502 251.105835 351.645935 249.009277 355.265625 250.152344 C 358.885284 251.29541 360.979889 255.105835 360.027344 258.916016 C 359.098633 262.01178 356.284882 263.975708 353.320313 263.990234 Z M 442.892578 262.433594 C 438.170563 262.398132 433.827057 259.529907 432.041016 254.916016 C 429.945435 249.010223 432.992645 242.341705 438.898438 240.246094 C 444.804199 238.150482 451.282257 241.199677 453.568359 247.105469 C 455.663971 253.201782 452.615662 259.677826 446.900391 261.773438 C 445.566833 262.231842 444.214752 262.443512 442.892578 262.433594 Z M 231.197266 262.226563 C 224.361557 262.241211 218.635422 257.117798 218.099609 250.152344 C 217.337585 242.722504 222.670822 236.246399 229.910156 235.484375 C 236.958984 234.912872 243.246674 240.05661 244.199219 247.105469 C 244.961258 254.535309 239.817459 261.201752 232.578125 262.154297 C 232.113754 262.201935 231.652985 262.225586 231.197266 262.226563 Z M 265.482422 260.615234 C 265.392578 260.616455 265.302612 260.615723 265.212891 260.613281 C 263.11441 260.556183 261.064575 259.505005 259.820313 257.582031 C 257.724701 254.533875 258.48703 250.152252 261.535156 248.056641 C 264.583313 245.961029 268.964935 246.723328 271.060547 249.771484 C 273.156158 252.819641 272.393829 257.010803 269.345703 259.296875 C 268.184784 260.167572 266.830261 260.597137 265.482422 260.615234 Z M 391.195313 252.798828 C 389.028992 252.762482 386.872467 251.951172 385.175781 250.34375 C 381.556091 246.914551 381.365784 241.197784 384.794922 237.578125 C 388.033569 233.958466 393.747528 233.768127 397.367188 237.197266 C 400.986877 240.626465 401.178101 246.343231 397.939453 249.962891 C 396.117706 251.885834 393.650482 252.840027 391.195313 252.798828 Z M 314.392578 251.177734 C 314.305603 251.179565 314.217957 251.178345 314.130859 251.175781 C 312.901306 251.139587 311.667877 250.66449 310.685547 249.771484 C 308.589935 247.866394 308.591003 244.628815 310.496094 242.533203 C 312.401184 240.437592 315.638794 240.436707 317.734375 242.341797 C 319.829987 244.246887 320.021362 247.486481 317.925781 249.582031 C 316.976959 250.625732 315.697113 251.150146 314.392578 251.177734 Z M 365.996094 244.179688 C 364.161407 244.160065 362.309143 243.489899 360.791016 242.150391 C 357.361847 239.292755 357.169739 234.150787 360.027344 230.912109 C 363.0755 227.673462 368.028931 227.481201 371.267578 230.529297 C 374.506226 233.577454 374.696594 238.721375 371.648438 241.769531 C 370.13031 243.388824 368.075409 244.201935 365.996094 244.179688 Z M 339.357422 243.460938 C 337.738098 243.484741 336.119141 242.912567 334.880859 241.769531 C 332.404236 239.292877 332.214783 235.292999 334.691406 232.816406 C 337.16803 230.339813 341.167908 230.338928 343.644531 232.625 C 346.121155 234.911133 346.310608 238.912964 343.833984 241.580078 C 342.595673 242.818359 340.976746 243.437134 339.357422 243.460938 Z M 421.457031 240.833984 C 417.265228 240.772797 413.334045 238.085724 411.845703 233.769531 C 410.131104 228.435303 413.180328 222.529022 418.705078 220.814453 C 424.229858 219.099823 429.945587 222.147125 431.660156 227.671875 C 433.184235 233.006134 430.326447 238.722046 424.992188 240.246094 C 423.825317 240.662842 422.630737 240.851105 421.457031 240.833984 Z M 285.794922 238.072266 C 284.147461 238.097992 282.47879 237.412048 281.347656 236.054688 C 279.633087 233.768555 280.014679 230.340637 282.300781 228.435547 C 284.586884 226.720947 288.016785 227.100586 289.921875 229.386719 C 291.826965 231.863312 291.445374 235.293182 288.96875 237.007813 C 288.040009 237.704346 286.922119 238.054657 285.794922 238.072266 Z M 456.167969 230.050781 C 455.624603 230.060547 455.075165 230.030426 454.521484 229.958984 C 448.806213 228.815918 444.995758 223.672302 445.757813 217.957031 C 446.519836 212.051239 451.854004 208.050476 457.759766 208.8125 C 463.665558 209.765045 467.665436 215.098175 466.712891 221.003906 C 466.022278 226.18338 461.420441 229.95636 456.167969 230.050781 Z M 253.982422 229.908203 C 248.729965 229.954071 244.128098 226.166504 243.4375 220.814453 C 242.675461 215.099182 246.484848 209.573639 252.390625 208.621094 C 258.105865 207.668549 263.631439 211.67038 264.583984 217.576172 C 265.53653 223.291443 261.534668 228.815033 255.628906 229.767578 C 255.075241 229.856873 254.525772 229.903473 253.982422 229.908203 Z M 396.265625 224.876953 C 392.592896 224.837555 389.187103 222.224396 388.222656 218.527344 C 387.07959 214.14566 389.938599 209.574646 394.320313 208.431641 C 398.702026 207.288574 403.272949 210.14566 404.416016 214.527344 C 405.559052 219.099548 402.892548 223.672485 398.320313 224.625 C 397.635681 224.803589 396.94577 224.884247 396.265625 224.876953 Z M 310.529297 222.96875 C 308.643585 222.909393 306.934845 221.77832 306.113281 219.861328 C 304.970215 217.194153 306.304626 214.336365 308.78125 213.193359 C 311.448364 212.050293 314.306152 213.384674 315.449219 215.861328 C 316.592285 218.337921 315.257843 221.38623 312.78125 222.529297 C 312.031128 222.850769 311.267181 222.991974 310.529297 222.96875 Z M 367.791016 216.064453 C 364.677429 216.011078 361.975586 213.770874 361.171875 210.716797 C 360.600342 207.097137 362.885132 203.478821 366.695313 202.716797 C 370.315002 201.954712 373.935211 204.240601 374.697266 208.050781 C 375.45929 211.670441 373.172424 215.099304 369.552734 215.861328 C 368.957397 216.010162 368.367615 216.074341 367.791016 216.064453 Z M 338.841797 215.332031 C 336.27179 215.270172 333.892181 213.306519 333.546875 210.716797 C 333.165863 207.859161 335.261505 205.002075 338.119141 204.621094 C 340.976776 204.240051 343.835785 206.335724 344.216797 209.193359 C 344.597809 212.050995 342.502167 214.908081 339.644531 215.289063 C 339.376617 215.324799 339.107666 215.33844 338.841797 215.332031 Z M 283.570313 205.367188 C 279.455017 205.356781 275.704559 202.501373 274.871094 198.333984 C 273.918549 193.571259 276.96582 188.808014 281.728516 187.855469 C 286.491241 186.902924 291.254486 189.952118 292.207031 194.714844 C 293.159576 199.47757 290.112335 204.240814 285.349609 205.193359 C 284.754272 205.312439 284.158203 205.368683 283.570313 205.367188 Z M 426.753906 205.183594 C 426.176056 205.179871 425.587524 205.121033 424.992188 205.001953 C 420.229462 204.049408 417.180267 199.286163 418.132813 194.523438 C 419.085358 189.760712 423.848602 186.902924 428.611328 187.855469 C 433.183533 188.808014 436.231842 193.571259 435.279297 198.333984 C 434.279114 202.501373 430.798859 205.209625 426.753906 205.183594 Z M 392.017578 189.216797 C 391.454315 189.218842 390.883942 189.148834 390.318359 189 C 386.889191 188.047455 384.794586 184.427246 385.556641 180.998047 C 386.318665 177.187866 389.937866 174.902039 393.748047 175.664063 C 397.558228 176.616608 399.653717 180.427216 398.701172 184.046875 C 397.897461 187.100952 395.059113 189.205811 392.017578 189.216797 Z M 318.130859 189.025391 C 315.089325 189.014404 312.25293 186.909607 311.449219 183.855469 C 310.496674 180.235809 312.782684 176.425201 316.402344 175.472656 C 320.022003 174.520111 323.830658 176.806122 324.783203 180.425781 C 325.735748 184.235962 323.449738 187.856049 319.830078 188.808594 C 319.264496 188.957428 318.694122 189.027435 318.130859 189.025391 Z M 355.074219 183.855469 C 351.64505 183.665009 348.979584 180.997498 348.789063 177.568359 C 348.789063 173.9487 351.454559 171.090881 355.074219 170.900391 C 358.693878 170.900391 361.552734 173.759247 361.552734 177.378906 C 361.552734 180.998566 358.503387 183.855469 355.074219 183.855469 Z"/>
    <path id="path1" fill="#666666" fill-rule="evenodd" stroke="none" d="M 659.889221 369.792297 L 643.314941 369.792297 C 641.790894 369.792297 641.21936 368.458771 640.647827 367.125183 L 621.215942 330.928497 L 619.310852 330.928497 C 615.881653 330.928497 610.356934 330.547455 607.308777 330.356995 L 607.308777 367.125183 C 607.308777 368.649231 606.16571 369.792297 604.641663 369.792297 L 591.115479 369.792297 C 589.591431 369.792297 588.448364 368.649231 588.448364 367.125183 L 588.448364 273.966339 C 588.448364 271.299225 590.162964 270.34668 592.830078 269.965637 C 599.878906 268.822571 609.404358 268.251068 619.310852 268.251068 C 640.076294 268.251068 658.365173 275.680908 658.365173 298.923004 L 658.365173 300.06601 C 658.365173 314.354187 651.125793 323.308136 640.076294 327.689819 L 661.413269 367.315704 C 661.603821 367.696686 661.603821 368.077728 661.603821 368.458771 C 661.603821 369.220795 661.032288 369.792297 659.889221 369.792297 Z M 639.504761 298.732483 C 639.504761 288.635468 632.646423 284.253784 619.120361 284.253784 C 616.262695 284.253784 609.59491 284.444305 607.118286 284.825287 L 607.118286 315.306732 C 609.213867 315.497253 616.834229 315.687775 619.120361 315.687775 C 633.027466 315.687775 639.504761 311.877594 639.504761 300.06601 L 639.504761 298.732483 Z M 709.993042 370.935364 C 687.703552 370.935364 671.319763 358.552277 671.319763 328.642365 L 671.319763 310.353546 C 671.319763 280.634125 687.513 268.060547 709.993042 268.060547 C 732.473145 268.060547 748.666382 280.443604 748.666382 310.353546 L 748.666382 328.642365 C 748.666382 358.552277 732.282654 370.935364 709.993042 370.935364 Z M 729.61554 310.353546 C 729.61554 292.445648 723.328674 284.444305 709.993042 284.444305 C 696.65741 284.444305 690.370667 292.445648 690.370667 310.353546 L 690.370667 328.642365 C 690.370667 346.550232 696.65741 354.551575 709.993042 354.551575 C 723.328674 354.551575 729.61554 346.550232 729.61554 328.642365 L 729.61554 310.353546 Z M 802.770935 370.935364 C 781.052917 370.935364 765.621704 361.409912 765.621704 332.643066 L 765.621704 271.870728 C 765.621704 270.34668 766.764771 269.203613 768.288818 269.203613 L 781.624451 269.203613 C 783.14856 269.203613 784.291565 270.34668 784.291565 271.870728 L 784.291565 332.643066 C 784.291565 348.07428 788.101746 355.313599 802.770935 355.313599 C 817.440125 355.313599 821.250305 348.07428 821.250305 332.643066 L 821.250305 271.870728 C 821.250305 270.34668 822.393311 269.203613 823.917419 269.203613 L 837.253052 269.203613 C 838.7771 269.203613 839.920166 270.34668 839.920166 271.870728 L 839.920166 332.643066 C 839.920166 361.409912 824.488953 370.935364 802.770935 370.935364 Z M 921.838989 285.015808 L 898.215942 285.015808 L 898.215942 367.125183 C 898.215942 368.649231 897.072876 369.792297 895.548828 369.792297 L 882.213196 369.792297 C 880.689087 369.792297 879.546021 368.649231 879.546021 367.125183 L 879.546021 285.015808 L 855.922913 285.015808 C 854.398865 285.015808 853.255798 284.063263 853.255798 282.539215 L 853.255798 271.870728 C 853.255798 270.34668 854.398865 269.203613 855.922913 269.203613 L 921.838989 269.203613 C 923.363037 269.203613 924.506104 270.34668 924.506104 271.870728 L 924.506104 282.539215 C 924.506104 284.063263 923.172607 285.015808 921.838989 285.015808 Z M 991.565308 369.030273 C 987.183533 369.792297 982.039856 370.935364 965.846558 370.935364 C 948.319763 370.935364 934.603149 366.172638 934.603149 343.121033 L 934.603149 295.874847 C 934.603149 272.823273 948.319763 268.060547 965.846558 268.060547 C 982.039856 268.060547 987.183533 269.203613 991.565308 269.965637 C 993.660889 270.156158 994.232422 270.918182 994.232422 272.823273 L 994.232422 281.396149 C 994.232422 282.920197 993.089355 284.063263 991.565308 284.063263 L 963.941467 284.063263 C 956.130615 284.063263 953.27301 286.730377 953.27301 295.684326 L 953.27301 310.353546 L 990.041199 310.353546 C 991.565308 310.353546 992.708374 311.496552 992.708374 313.02066 L 992.708374 322.736633 C 992.708374 324.260681 991.565308 325.403748 990.041199 325.403748 L 953.27301 325.403748 L 953.27301 342.930511 C 953.27301 351.88446 956.130615 354.551575 963.941467 354.551575 L 991.565308 354.551575 C 993.089355 354.551575 994.232422 355.694641 994.232422 357.218689 L 994.232422 365.791595 C 994.422913 368.077728 993.660889 368.839752 991.565308 369.030273 Z M 1084.152588 369.792297 L 1067.578369 369.792297 C 1066.054321 369.792297 1065.482666 368.458771 1064.911255 367.125183 L 1045.479248 330.928497 L 1043.574219 330.928497 C 1040.14502 330.928497 1034.620361 330.547455 1031.572144 330.356995 L 1031.572144 367.125183 C 1031.572144 368.649231 1030.429077 369.792297 1028.905029 369.792297 L 1015.378906 369.792297 C 1013.854797 369.792297 1012.711792 368.649231 1012.711792 367.125183 L 1012.711792 273.966339 C 1012.711792 271.299225 1014.426331 270.34668 1017.093445 269.965637 C 1024.142334 268.822571 1033.667725 268.251068 1043.574219 268.251068 C 1064.339722 268.251068 1082.62854 275.680908 1082.62854 298.923004 L 1082.62854 300.06601 C 1082.62854 314.354187 1075.38916 323.308136 1064.339722 327.689819 L 1085.676636 367.315704 C 1085.867188 367.696686 1085.867188 368.077728 1085.867188 368.458771 C 1085.676636 369.220795 1085.295654 369.792297 1084.152588 369.792297 Z M 1063.768188 298.732483 C 1063.768188 288.635468 1056.90979 284.253784 1043.383667 284.253784 C 1040.526001 284.253784 1033.858276 284.444305 1031.381592 284.825287 L 1031.381592 315.306732 C 1033.477295 315.497253 1041.097656 315.687775 1043.383667 315.687775 C 1057.290894 315.687775 1063.768188 311.877594 1063.768188 300.06601 L 1063.768188 298.732483 Z"/>
</svg>
